<svg xmlns="http://www.w3.org/2000/svg" width="169" height="60" viewBox="0 0 169 60">
  <path d="M62.389684,16.5495376 L62.389684,39.661823 C62.389684,40.4649974 62.5756073,41.2258881 62.9474595,41.9445178 C63.3193118,42.6631476 63.834585,43.2866552 64.4932946,43.8150594 C65.1520042,44.3434637 65.9116338,44.7608968 66.7722061,45.0673712 C67.6327784,45.3738457 68.562395,45.5270806 69.5610838,45.5270806 C70.1985447,45.5270806 70.883805,45.3896975 71.616885,45.1149273 C72.3499651,44.8401571 73.0670979,44.4649958 73.768305,43.989432 C74.469512,43.5138682 75.1228997,42.9537681 75.7284876,42.3091149 C76.3340755,41.6644618 76.8493487,40.9828305 77.2743226,40.2642008 L77.2743226,16.5495376 L83.712646,16.5495376 L83.712646,49.014531 L77.2743226,49.014531 L77.2743226,42.9273448 C76.7006078,43.8573362 75.983475,44.7344741 75.1229027,45.5587847 C74.2623304,46.3830953 73.3327138,47.1017142 72.334025,47.7146631 C71.3353362,48.327612 70.3047898,48.8137366 69.2423549,49.1730515 C68.17992,49.5323664 67.170622,49.7120211 66.2144305,49.7120211 C64.7907678,49.7120211 63.4521199,49.447823 62.1984467,48.9194188 C60.9447735,48.3910145 59.8504819,47.6723956 58.9155392,46.7635403 C57.9805965,45.854685 57.2422153,44.7873245 56.7003735,43.5614267 C56.1585317,42.3355289 55.8876149,41.035674 55.8876149,39.661823 L55.8876149,16.5495376 L62.389684,16.5495376 Z M118.737911,49.014531 C118.737911,46.7177488 118.737911,45.2382244 118.737911,44.5759577 C117.920279,45.1466343 117.119694,45.7384382 116.33613,46.3513871 C115.552566,46.964336 114.700879,47.5191521 113.781044,48.015852 C112.861208,48.512552 111.839184,48.9194172 110.71494,49.2364597 C109.590697,49.5535022 108.290455,49.7120211 106.814176,49.7120211 C105.451456,49.7120211 104.219349,49.5059466 103.117818,49.0937913 C102.016286,48.681636 101.085108,48.1162519 100.324257,47.3976222 C99.5634051,46.6789924 98.9729022,45.8229904 98.5527304,44.8295905 C98.1325586,43.8361905 97.9224758,42.76883 97.9224758,41.6274769 C97.9224758,40.2324897 98.2177273,38.9749065 98.808239,37.8546896 C99.3987508,36.7344726 100.210692,35.7358036 101.244088,34.8586526 C102.277483,33.9815016 103.475523,33.199475 104.838242,32.5125495 C106.200962,31.825624 107.654507,31.2126843 109.198923,30.673712 C110.743338,30.1347397 112.333154,29.6538991 113.968417,29.2311757 C115.60368,28.8084523 117.193496,28.417439 118.737911,28.0581242 L118.737911,26.0290621 C118.737911,24.5495303 118.624353,23.302515 118.397233,22.2879789 C118.170113,21.2734427 117.818082,20.4544285 117.341131,19.8309115 C116.864179,19.2073945 116.256642,18.7635416 115.518502,18.4993395 C114.780363,18.2351374 113.900286,18.1030383 112.878247,18.1030383 C111.901631,18.1030383 111.004521,18.2826931 110.186889,18.6420079 C109.369258,19.0013228 108.648163,19.4821634 108.023583,20.0845443 C107.399003,20.6869251 106.887991,21.3949761 106.490531,22.2087186 C106.093072,23.0224611 105.82621,23.8837471 105.689938,24.7926024 L99.3533241,24.7926024 C99.53502,23.3976152 100.05171,22.1505999 100.90341,21.0515192 C101.755109,19.9524384 102.828235,19.0277448 104.122818,18.2774108 C105.417402,17.5270768 106.887981,16.9511249 108.5346,16.5495376 C110.18122,16.1479504 111.890271,15.9471598 113.661807,15.9471598 C115.933006,15.9471598 117.840784,16.1532344 119.385199,16.5653897 C120.929615,16.977545 122.1674,17.553497 123.098591,18.2932629 C124.029783,19.0330288 124.694099,19.9365865 125.091559,21.003963 C125.489018,22.0713396 125.687745,23.2496633 125.687745,24.5389696 L125.687745,49.0937913 L118.737911,49.014531 Z M118.746428,30.1188904 C117.748325,30.4147967 116.716211,30.7529704 115.650056,31.1334214 C114.583901,31.5138724 113.540445,31.9418734 112.519658,32.4174373 C111.498871,32.8930011 110.523467,33.4055455 109.593416,33.9550859 C108.663366,34.5046263 107.846748,35.0964301 107.14354,35.7305152 C106.440331,36.3646003 105.884577,37.0303796 105.476262,37.7278732 C105.067948,38.4253668 104.863793,39.1545537 104.863793,39.9154557 C104.863793,40.7186302 105.02258,41.4742369 105.340158,42.1822985 C105.657736,42.8903602 106.077387,43.5138678 106.599123,44.0528402 C107.120858,44.5918125 107.721979,45.0145295 108.402504,45.321004 C109.083029,45.6274784 109.786227,45.7807133 110.51212,45.7807133 C111.283381,45.7807133 112.020605,45.685602 112.723814,45.4953765 C113.427023,45.305151 114.107538,45.0462368 114.765378,44.7186262 C115.423219,44.3910155 116.08105,44.0158542 116.73889,43.5931308 C117.396731,43.1704074 118.065903,42.7159866 118.746428,42.2298547 L118.746428,30.1188904 Z M146.352333,49.014531 L139.850264,49.014531 L139.850264,1.83883752 L144.471833,0 L146.352333,0 L146.352333,49.014531 Z M161.159281,17.7388375 L165.717104,15.9 L167.597605,15.9 L167.597605,48.9673712 L161.159281,48.9673712 L161.159281,17.7388375 Z M160.706587,5.92767503 C160.706587,5.42040697 160.802205,4.9448503 160.993443,4.50099075 C161.184681,4.0571312 161.450286,3.66611794 161.790265,3.32793923 C162.130244,2.98976053 162.523339,2.72556238 162.969562,2.53533686 C163.415785,2.34511133 163.893873,2.25 164.403842,2.25 C164.913811,2.25 165.391899,2.34511133 165.838122,2.53533686 C166.284344,2.72556238 166.677439,2.98976053 167.017419,3.32793923 C167.357398,3.66611794 167.623003,4.0571312 167.814241,4.50099075 C168.005479,4.9448503 168.101097,5.42040697 168.101097,5.92767503 C168.101097,6.43494309 168.005479,6.91049976 167.814241,7.35435931 C167.623003,7.79821886 167.357398,8.18923213 167.017419,8.52741083 C166.677439,8.86558954 166.284344,9.12978769 165.838122,9.32001321 C165.391899,9.51023873 164.913811,9.60535007 164.403842,9.60535007 C163.893873,9.60535007 163.415785,9.51023873 162.969562,9.32001321 C162.523339,9.12978769 162.130244,8.86558954 161.790265,8.52741083 C161.450286,8.18923213 161.184681,7.79821886 160.993443,7.35435931 C160.802205,6.91049976 160.706587,6.43494309 160.706587,5.92767503 Z M30.5799259,59.5387876 C28.1560598,58.9820179 27.3769545,58.621499 25.5854953,57.7490092 C23.7940361,56.8765195 22.5241134,55.9524487 21.174203,54.990753 C19.8242926,54.0290573 18.6142125,53.0462402 17.5439264,52.0422721 C16.4736403,51.0383041 15.5817486,50.0713389 14.8682245,49.1413474 C12.6890834,48.5495347 10.6883534,47.5350138 8.86597435,46.0977543 C7.04359531,44.6604948 5.47675852,42.9696266 4.16541699,41.0250991 C2.85407545,39.0805715 1.83201576,36.9617024 1.09920726,34.668428 C0.366398756,32.3751537 0,30.0766297 0,27.7727873 C0,24.7714513 0.530313989,21.9498151 1.59095788,19.3077939 C2.65160176,16.6657728 4.11719679,14.3619649 5.98778692,12.3963012 C7.85837705,10.4306375 10.0664117,8.87715234 12.611957,7.73579921 C15.1575023,6.59444608 17.9247771,6.02377807 20.9138645,6.02377807 C23.8836673,6.02377807 26.6413001,6.59444608 29.1868454,7.73579921 C31.7323907,8.87715234 33.9404253,10.4306375 35.8110155,12.3963012 C37.6816056,14.3619649 39.1472006,16.6657728 40.2078445,19.3077939 C41.2684884,21.9498151 41.7988024,24.7714513 41.7988024,27.7727873 C41.7988024,30.2034468 41.4034774,32.597082 40.6128156,34.9537649 C39.8221538,37.3104477 38.7277786,39.4715886 37.3296571,41.4372523 C35.9315356,43.402916 34.2634571,45.0885002 32.3253714,46.4940555 C30.3872858,47.8996107 28.2612088,48.856008 25.9470766,49.3632761 C26.3713342,50.7582632 27.0800265,52.1532295 28.0731749,53.5482166 C29.0663233,54.9432038 30.2522982,56.195503 31.6311352,57.3051519 C32.5503599,58.0449178 33.9436534,58.9142533 35.8110155,59.9131583 C33.7421174,59.9710528 31.9984208,59.8462625 30.5799259,59.5387876 Z M20.5976048,48 C28.3897804,48 34.7065868,39.0009235 34.7065868,27.9 C34.7065868,16.7990765 28.3897804,7.8 20.5976048,7.8 C12.8054292,7.8 6.48862275,16.7990765 6.48862275,27.9 C6.48862275,39.0009235 12.8054292,48 20.5976048,48 Z" style="mix-blend-mode:multiply"/>
</svg>
